<svg width="546" height="108" viewBox="0 0 546 108" fill="none" xmlns="http://www.w3.org/2000/svg">
<g filter="url(#filter0_d_696_528)">
<path d="M11.7422 90.4693L12.9522 90.7526C20.5122 89.2879 22.2122 90.0617 24.7122 90.7526C29.3822 90.6973 28.8922 93.1222 34.0222 91.4089C42.6722 89.1498 36.8622 88.0928 41.5522 90.3381C47.4622 87.844 50.3022 91.3743 52.7822 89.4814C53.4922 91.4296 58.6722 89.3639 61.3822 87.7611C66.2822 89.6748 69.2722 84.8595 72.3822 86.5245C76.2722 88.0927 80.2622 84.0236 83.9822 86.6143C87.7222 87.7611 89.9822 87.2154 93.7322 87.2154C97.0222 87.3259 100.302 86.9805 103.592 88.6938C106.892 88.9563 110.182 89.7715 113.472 90.1515C117.362 92.6801 121.382 93.744 125.472 91.0427C127.802 89.9235 129.592 92.6041 132.302 89.0876C134.212 85.0046 136.152 89.6334 138.072 88.8803C141.412 89.0461 144.752 88.4175 148.072 87.9131C152.952 86.6074 156.492 87.2223 161.272 86.9114C167.132 86.3863 171.092 86.6903 177.102 85.9718C184.102 85.6333 187.392 86.9528 192.832 88.8872C195.492 90.0548 198.672 90.117 202.172 90.8976C202.742 85.6195 202.102 91.927 203.502 85.7922C206.742 88.1757 210.122 85.9096 213.502 86.1238C216.892 87.7888 220.282 87.0634 223.572 86.0202C224.622 88.5487 227.622 84.0236 228.862 86.0893C231.972 84.977 234.862 88.9563 237.752 84.3759C240.672 81.8957 243.622 83.7611 246.912 82.6142C248.562 83.92 250.022 80.8733 251.652 82.4415C257.652 83.4502 260.762 82.7109 265.742 83.8232C269.232 86.5867 272.892 83.5331 276.582 86.5867C280.282 88.1964 284.022 92.7561 287.702 89.0116C289.392 88.2102 290.482 87.6299 292.182 90.3933C296.692 91.2154 302.272 90.9529 306.892 90.9253C311.002 91.9201 309.472 93.0393 314.212 92.0099C319.782 91.5194 325.352 96.846 330.912 92.0099C334.962 93.4607 339.262 90.8286 343.062 92.1688C347.702 89.9788 352.362 93.7025 357.062 92.0652C361.68 92.7218 366.444 92.7218 371.062 92.0652C374.782 93.3433 377.602 93.9236 380.692 91.0082C382.102 91.1671 383.572 88.4313 385.162 89.7577C388.372 89.5574 392.942 89.6403 396.362 89.3847C401.542 86.6212 406.842 83.4363 411.972 88.604C414.852 91.2293 414.302 87.2706 416.432 87.6161C419.082 84.8112 420.932 87.0565 424.002 86.0685C428.002 91.8925 432.292 83.9545 436.392 84.2723C442.262 85.129 448.492 87.5953 454.082 84.8664C459.572 87.3466 465.572 87.6299 471.372 87.3259C474.192 84.2101 475.562 87.9822 478.302 87.9062C481.302 87.623 483.812 87.4157 487.102 89.5781C493.392 90.6144 497.922 91.0773 504.792 92.0583C510.152 89.8061 515.522 92.0583 520.882 92.0583C525.152 93.9858 529.572 93.9513 533.482 93.44V15.5938L532.552 15.7803C529.722 15.0273 524.622 14.9306 519.102 15.7803C517.362 14.2397 517.732 16.7821 512.832 15.725C506.122 15.6836 506.552 15.3727 508.012 17.4315C509.092 17.4798 507.252 18.3434 505.782 18.6681C496.582 17.1897 495.052 18.1983 495.492 18.8063C498.142 21.5697 490.152 17.8322 485.192 18.8063C479.382 18.9928 476.862 18.4885 472.832 18.8546C467.832 17.7838 465.462 18.4539 461.892 17.2657C461.332 18.3089 460.642 17.0515 459.892 15.8425C458.682 15.4625 456.132 15.7389 454.892 15.7803C449.982 17.9496 448.232 17.8529 443.702 18.5438C439.702 20.2916 435.562 19.1448 431.602 18.9997C427.862 18.6612 426.022 19.4419 421.942 19.9255C418.562 19.0274 415.172 21.4039 411.792 19.9255C407.152 22.1777 401.192 24.1605 396.792 19.8219C394.602 20.9894 393.392 18.8408 391.022 18.6958C389.292 18.2398 387.112 17.4038 385.332 18.7372C382.332 20.1189 379.332 21.0378 376.332 18.7372C371.662 18.302 366.962 17.5904 362.332 18.7372C358.032 19.4281 354.652 19.4281 350.462 19.9462C345.852 18.9099 340.852 20.9687 336.612 19.3521C332.432 19.0205 327.462 20.9687 323.942 18.1845C320.942 16.0567 318.322 16.5264 314.782 15.3105C312.962 13.5005 310.972 14.2535 309.132 14.6197C306.842 12.5954 305.332 14.6611 302.902 13.8805C299.542 13.3805 296.088 13.2592 292.672 13.5212C292.022 13.5212 291.032 13.1758 289.672 14.6542C288.272 13.7906 286.872 14.744 285.472 15.124C282.032 14.5989 278.712 15.6145 275.292 15.2C270.482 14.4262 265.972 17.4522 260.922 15.808C256.112 16.3054 251.312 15.9738 246.502 15.808C242.012 15.9392 237.282 17.4798 232.832 15.808C229.552 19.3659 226.832 13.2379 223.702 14.5575C217.912 12.0497 211.012 19.0481 205.392 15.0549C201.642 16.1741 197.972 15.4902 194.322 15.1033C190.662 16.2017 187.032 12.8787 183.322 14.5575C180.462 12.7889 177.472 13.7906 174.612 14.5575C171.502 14.2673 164.272 16.2846 163.512 17.0031C165.022 18.7579 169.382 20.8512 170.062 20.6854C164.292 23.4489 157.862 20.1535 152.192 20.8927C148.915 22.1311 145.186 22.6833 141.462 22.4817C137.862 21.2381 134.232 21.8944 130.532 23.5318C127.472 19.663 124.922 26.2261 122.062 22.5162C119.342 24.9066 115.392 19.9946 112.352 21.6043C110.352 21.9359 109.922 19.4902 108.202 22.5369C105.102 24.9964 103.262 25.1553 100.862 22.2882C96.0922 23.4282 94.7222 26.0327 90.5522 22.1777C87.5522 24.3124 86.0922 24.5888 83.1922 21.6734C78.8522 19.2415 74.8522 24.9688 71.9522 21.3556C65.9522 17.0101 62.5522 21.7148 61.4522 18.7165C55.9722 17.8391 59.7122 18.3641 53.4522 18.6543C52.2522 16.7682 46.8922 17.2726 43.2322 17.4384C41.9722 19.1794 36.9622 18.9168 33.8022 16.8995C31.6822 17.093 24.7222 16.5264 24.1722 16.9479C16.0622 17.6387 17.8622 19.2553 16.7922 19.2623C15.7922 20.2502 15.0222 19.6768 11.7922 19.7459L11.7422 90.4693Z" fill="#231F20"/>
</g>
<path d="M69.9005 8.20052C69.0849 7.799 68.4421 7.25226 68.0405 6.61845C65.8905 5.92759 64.1105 4.59423 62.1005 4.78767C60.4305 4.84294 57.8505 6.12103 58.3505 3.49576C57.2705 2.86016 55.6905 2.86707 54.6305 2.21766C52.9905 1.5268 51.3705 0.338522 49.3405 0L27.4805 27.6414C29.1105 28.3944 29.6605 30.543 32.4805 29.8797C34.9205 30.5706 36.5605 31.9523 39.3405 32.2494C40.9405 31.3651 41.4505 32.2494 41.6105 33.0024C42.4105 33.113 42.6905 32.2356 43.4705 32.6846C44.5905 32.9748 46.6405 33.4929 47.3905 34.2736C47.8789 34.4821 48.3466 34.7129 48.7905 34.9645L69.9005 8.20052Z" fill="#905B00"/>
<path d="M504.701 80.5052C503.888 80.1051 503.245 79.561 502.841 78.9301C500.691 78.1977 498.911 76.8989 496.901 77.0924C495.231 77.1753 492.661 78.4257 493.151 75.8005C492.071 75.1718 490.491 75.1718 489.431 74.5224C487.791 73.8315 486.171 72.6432 484.141 72.3047L462.281 99.9391C463.911 100.692 464.461 102.841 467.281 102.178C469.721 102.868 471.361 104.25 474.141 104.547C475.741 103.67 476.251 104.547 476.411 105.3C477.211 105.411 477.491 104.533 478.271 104.982C479.391 105.273 481.441 105.791 482.191 106.578C482.684 106.782 483.153 107.013 483.591 107.269L504.701 80.5052Z" fill="#905B00"/>
<defs>
<filter id="filter0_d_696_528" x="0.142187" y="1.78672" width="544.94" height="103.868" filterUnits="userSpaceOnUse" color-interpolation-filters="sRGB">
<feFlood flood-opacity="0" result="BackgroundImageFix"/>
<feColorMatrix in="SourceAlpha" type="matrix" values="0 0 0 0 0 0 0 0 0 0 0 0 0 0 0 0 0 0 127 0" result="hardAlpha"/>
<feOffset/>
<feGaussianBlur stdDeviation="5.8"/>
<feComposite in2="hardAlpha" operator="out"/>
<feColorMatrix type="matrix" values="0 0 0 0 0.682692 0 0 0 0 0.284455 0 0 0 0 0 0 0 0 0.28 0"/>
<feBlend mode="normal" in2="BackgroundImageFix" result="effect1_dropShadow_696_528"/>
<feBlend mode="normal" in="SourceGraphic" in2="effect1_dropShadow_696_528" result="shape"/>
</filter>
</defs>
</svg>
