<?xml version="1.0" encoding="utf-8"?>
<!-- Generator: Adobe Illustrator 26.0.1, SVG Export Plug-In . SVG Version: 6.00 Build 0)  -->
<svg version="1.1" id="Layer_1" xmlns="http://www.w3.org/2000/svg" xmlns:xlink="http://www.w3.org/1999/xlink" x="0px" y="0px"
	 viewBox="0 0 295 295" style="enable-background:new 0 0 295 295;" xml:space="preserve">
<style type="text/css">
	.st0{fill:url(#SVGID_1_);}
	.st1{fill:#231F20;}
	.st2{fill:#FAB800;}
</style>
<radialGradient id="SVGID_1_" cx="-597.3174" cy="897.9193" r="1" gradientTransform="matrix(136.4887 119.5053 460.1765 -525.5739 -331560.75 543430.6875)" gradientUnits="userSpaceOnUse">
	<stop  offset="0" style="stop-color:#F5CA01"/>
	<stop  offset="1" style="stop-color:#FEAE00"/>
</radialGradient>
<path class="st0" d="M36,0h223c19.9,0,36,16.1,36,36v223c0,19.9-16.1,36-36,36H36c-19.9,0-36-16.1-36-36V36C0,16.1,16.1,0,36,0z"/>
<path class="st1" d="M153.9,53.4c-52.1,0-94.3,42.2-94.3,94.3s42.2,94.3,94.3,94.3s94.3-42.3,94.3-94.3S206,53.4,153.9,53.4z
	 M167.5,198.3c-1.2,2.7-2.9,5.3-5,7.4c-2.1,2.1-4.6,3.8-7.4,5c-2.9,1.2-6,1.9-9.1,1.8h-34.5V197H146c4.3,0,7.7-3.5,7.7-7.7
	c0-4.3-3.5-7.7-7.7-7.8h-15.6c-3.1,0-6.2-0.6-9-1.8c-5.6-2.4-10-6.8-12.4-12.4c-1.3-2.9-1.9-5.9-1.9-9.1c0-3.1,0.6-6.2,1.9-9.1
	c2.4-5.5,6.8-10,12.4-12.4c2.9-1.2,5.9-1.9,9.1-1.9H143V72.7h23.4c3.5,0,7,0.4,10.3,1.4c6.5,1.8,12.4,5.2,17.1,10
	c2.3,2.4,4.4,5,6.1,7.9c3.5,5.9,5.3,12.7,5.3,19.5v0c0,6.9-1.8,13.6-5.3,19.5c-1.7,2.9-3.7,5.5-6.1,7.9
	c-7.2,7.3-17.1,11.4-27.4,11.4h-0.3v0.1h-35.6c-4.2,0-7.7,3.3-7.8,7.6v0.1c0,1,0.2,2.1,0.6,3c0.8,1.9,2.3,3.4,4.1,4.2
	c1,0.4,2,0.6,3,0.6H146c3.1,0,6.2,0.6,9.1,1.8c5.6,2.3,10,6.8,12.4,12.4C169.9,186,169.9,192.5,167.5,198.3z"/>
<path class="st1" d="M189.6,111.5c0,3.1-0.6,6.2-1.8,9c-2.3,5.6-6.8,10.1-12.4,12.4c-2.9,1.2-6,1.8-9.1,1.8l-2.5,0.1h-5.3V88.2h7.8
	c3.1,0,6.2,0.6,9.1,1.9c2.7,1.2,5.3,2.9,7.4,5c2.1,2.1,3.8,4.6,5,7.4C189,105.3,189.6,108.4,189.6,111.5z"/>
<g>
	<g>
		<path class="st2" d="M208.9,197.7c0,2-0.4,3.9-1.2,5.8c-0.8,1.7-1.8,3.3-3.2,4.7c-1.4,1.3-3,2.4-4.8,3.2c-3.7,1.6-7.9,1.6-11.6,0
			c-3.5-1.5-6.4-4.3-7.9-7.8c-1.6-3.7-1.6-7.8,0-11.5c1.5-3.6,4.3-6.4,7.9-7.9c3.7-1.6,7.9-1.6,11.6,0c1.8,0.7,3.4,1.8,4.8,3.2
			c1.4,1.4,2.5,3,3.2,4.7C208.5,193.8,208.9,195.7,208.9,197.7z"/>
	</g>
</g>
</svg>
