<svg id="Layer_1" data-name="Layer 1" xmlns="http://www.w3.org/2000/svg" viewBox="0 0 78.67 72.41"><defs><style>.cls-1{fill:#180f18;}.cls-2{fill:#231f20;}.cls-3{fill:#fab800;}</style></defs><path class="cls-1" d="M7.76,57.1a2.79,2.79,0,0,1-1.18,1.15,4.25,4.25,0,0,1-2.08.45H2.65V63H1V52.46H4.5a4.48,4.48,0,0,1,2,.41A2.91,2.91,0,0,1,7.72,54a3.13,3.13,0,0,1,.4,1.59,3.29,3.29,0,0,1-.36,1.51m-1.83-.25a1.67,1.67,0,0,0,.47-1.26c0-1.15-.63-1.73-1.9-1.73H2.65v3.43H4.5a2,2,0,0,0,1.43-.44" transform="translate(-0.97)"/><path class="cls-1" d="M9.68,56.54A3.74,3.74,0,0,1,11.06,55,3.69,3.69,0,0,1,13,54.5a3.4,3.4,0,0,1,2.81,1.34V54.63H17.5V63H15.81V61.72A3.54,3.54,0,0,1,13,63.1a3.58,3.58,0,0,1-1.92-.55A3.83,3.83,0,0,1,9.68,61a4.8,4.8,0,0,1-.51-2.24,4.66,4.66,0,0,1,.51-2.22m5.78.75a2.41,2.41,0,0,0-.91-1,2.23,2.23,0,0,0-1.2-.34,2.38,2.38,0,0,0-2.11,1.28,2.93,2.93,0,0,0-.35,1.49,3.06,3.06,0,0,0,.35,1.51,2.5,2.5,0,0,0,.91,1,2.28,2.28,0,0,0,1.2.34,2.33,2.33,0,0,0,1.2-.33,2.4,2.4,0,0,0,.91-1,3.11,3.11,0,0,0,.35-1.5,3.07,3.07,0,0,0-.35-1.49" transform="translate(-0.97)"/><path class="cls-1" d="M22.55,54.89a3.52,3.52,0,0,1,1.67-.39,3.68,3.68,0,0,1,1.93.53,3.81,3.81,0,0,1,1.38,1.51,4.78,4.78,0,0,1,.5,2.22,4.92,4.92,0,0,1-.5,2.24,3.93,3.93,0,0,1-1.38,1.55,3.61,3.61,0,0,1-1.93.55,3.41,3.41,0,0,1-1.65-.39,3.77,3.77,0,0,1-1.18-1v5.17H19.71V54.63h1.68v1.23a3.29,3.29,0,0,1,1.16-1M26,57.27A2.41,2.41,0,0,0,23.85,56a2.25,2.25,0,0,0-1.2.34,2.41,2.41,0,0,0-.91,1,3.13,3.13,0,0,0-.35,1.5,3,3,0,0,0,.35,1.5,2.4,2.4,0,0,0,.91,1,2.36,2.36,0,0,0,1.2.33,2.31,2.31,0,0,0,1.21-.34,2.43,2.43,0,0,0,.91-1,3.06,3.06,0,0,0,.35-1.51A3,3,0,0,0,26,57.27" transform="translate(-0.97)"/><path class="cls-1" d="M37.06,59.44H30.87a2.3,2.3,0,0,0,.72,1.6,2.25,2.25,0,0,0,1.59.61,2,2,0,0,0,1.91-1.17H36.9a3.71,3.71,0,0,1-1.33,1.88,3.83,3.83,0,0,1-2.39.74,4.07,4.07,0,0,1-2.09-.54,3.81,3.81,0,0,1-1.44-1.51,4.71,4.71,0,0,1-.52-2.26,4.8,4.8,0,0,1,.51-2.26A3.7,3.7,0,0,1,31.06,55a4.22,4.22,0,0,1,2.12-.52,4,4,0,0,1,2,.51,3.53,3.53,0,0,1,1.4,1.44,4.37,4.37,0,0,1,.5,2.14,5.48,5.48,0,0,1-.06.85m-1.69-1.39a2,2,0,0,0-.66-1.53A2.37,2.37,0,0,0,33.1,56a2.09,2.09,0,0,0-1.48.57,2.35,2.35,0,0,0-.74,1.53Z" transform="translate(-0.97)"/><path class="cls-1" d="M41.42,54.85a2.91,2.91,0,0,1,1.45-.35v1.78h-.42a2,2,0,0,0-1.5.51,2.52,2.52,0,0,0-.51,1.79V63H38.77V54.63h1.67v1.21a2.82,2.82,0,0,1,1-1" transform="translate(-0.97)"/><path class="cls-1" d="M55.31,54.63,52.79,63H51l-1.64-6.15L47.76,63H46l-2.53-8.33h1.71l1.69,6.7,1.72-6.7h1.76L52,61.3l1.68-6.67Z" transform="translate(-0.97)"/><path class="cls-1" d="M56.52,56.54A3.74,3.74,0,0,1,57.9,55a3.69,3.69,0,0,1,1.94-.53,3.4,3.4,0,0,1,2.81,1.34V54.63h1.69V63H62.65V61.72a3.54,3.54,0,0,1-2.84,1.38,3.58,3.58,0,0,1-1.92-.55A3.83,3.83,0,0,1,56.52,61,4.8,4.8,0,0,1,56,58.76a4.66,4.66,0,0,1,.51-2.22m5.78.75a2.46,2.46,0,0,0-.9-1A2.29,2.29,0,0,0,60.19,56a2.38,2.38,0,0,0-2.11,1.28,3.39,3.39,0,0,0,0,3,2.5,2.5,0,0,0,.91,1,2.28,2.28,0,0,0,1.2.34,2.4,2.4,0,0,0,1.21-.33,2.45,2.45,0,0,0,.9-1,3.11,3.11,0,0,0,.35-1.5,3.07,3.07,0,0,0-.35-1.49" transform="translate(-0.97)"/><path class="cls-1" d="M69.2,54.85a2.91,2.91,0,0,1,1.45-.35v1.78h-.42a2,2,0,0,0-1.5.51,2.57,2.57,0,0,0-.5,1.79V63H66.55V54.63h1.68v1.21a2.71,2.71,0,0,1,1-1" transform="translate(-0.97)"/><path class="cls-1" d="M79.58,59.44h-6.2A2.35,2.35,0,0,0,74.1,61a2.27,2.27,0,0,0,1.59.61,2,2,0,0,0,1.92-1.17h1.81a3.73,3.73,0,0,1-1.34,1.88,3.83,3.83,0,0,1-2.39.74,4,4,0,0,1-2.08-.54,3.81,3.81,0,0,1-1.44-1.51,4.71,4.71,0,0,1-.53-2.26,4.8,4.8,0,0,1,.51-2.26A3.72,3.72,0,0,1,73.58,55a4.18,4.18,0,0,1,2.11-.52,4,4,0,0,1,2,.51,3.59,3.59,0,0,1,1.4,1.44,4.48,4.48,0,0,1,.5,2.14,5.48,5.48,0,0,1-.06.85m-1.69-1.39a2,2,0,0,0-.67-1.53,2.32,2.32,0,0,0-1.6-.57,2.12,2.12,0,0,0-1.49.57,2.34,2.34,0,0,0-.73,1.53Z" transform="translate(-0.97)"/><path class="cls-1" d="M47.19,72.2a1.71,1.71,0,0,1-.72-.56,1.31,1.31,0,0,1-.29-.78h1.18a.64.64,0,0,0,.27.45.88.88,0,0,0,.57.17.9.9,0,0,0,.53-.13.43.43,0,0,0,.19-.34.38.38,0,0,0-.23-.35,5.37,5.37,0,0,0-.74-.24,6.86,6.86,0,0,1-.85-.26,1.54,1.54,0,0,1-.57-.41,1.13,1.13,0,0,1-.24-.75,1.22,1.22,0,0,1,.22-.71,1.48,1.48,0,0,1,.64-.5,2.45,2.45,0,0,1,1-.19,2,2,0,0,1,1.32.42A1.54,1.54,0,0,1,50,69.14H48.87a.58.58,0,0,0-.23-.44.84.84,0,0,0-.55-.16,1,1,0,0,0-.49.11.4.4,0,0,0,.06.69,4.25,4.25,0,0,0,.73.25,5.68,5.68,0,0,1,.84.26,1.4,1.4,0,0,1,.56.41A1.13,1.13,0,0,1,50,71a1.25,1.25,0,0,1-.22.72,1.48,1.48,0,0,1-.64.5,2.43,2.43,0,0,1-1,.18A2.38,2.38,0,0,1,47.19,72.2Z" transform="translate(-0.97)"/><path class="cls-1" d="M51.86,72.11a2.19,2.19,0,0,1-.84-.84A2.61,2.61,0,0,1,50.71,70,2.46,2.46,0,0,1,51,68.75a2.2,2.2,0,0,1,.86-.85,2.61,2.61,0,0,1,2.43,0,2.16,2.16,0,0,1,.87.85A2.45,2.45,0,0,1,55.5,70a2.51,2.51,0,0,1-.32,1.26,2.29,2.29,0,0,1-.88.84,2.49,2.49,0,0,1-1.23.3A2.44,2.44,0,0,1,51.86,72.11Zm1.81-.88a1.14,1.14,0,0,0,.45-.47,1.49,1.49,0,0,0,.17-.75,1.35,1.35,0,0,0-.35-1,1.13,1.13,0,0,0-.85-.36,1.09,1.09,0,0,0-.84.36,1.38,1.38,0,0,0-.34,1,1.46,1.46,0,0,0,.33,1,1.11,1.11,0,0,0,.83.35A1.21,1.21,0,0,0,53.67,71.23Z" transform="translate(-0.97)"/><path class="cls-1" d="M57.54,66.12v6.21H56.37V66.12Z" transform="translate(-0.97)"/><path class="cls-1" d="M63.09,67.68v4.65H61.91v-.59a1.55,1.55,0,0,1-.59.48,1.94,1.94,0,0,1-.8.17,2,2,0,0,1-1-.23,1.61,1.61,0,0,1-.66-.68,2.25,2.25,0,0,1-.24-1.07V67.68h1.17v2.56a1.22,1.22,0,0,0,.28.85,1,1,0,0,0,.76.3,1,1,0,0,0,.76-.3,1.18,1.18,0,0,0,.28-.85V67.68Z" transform="translate(-0.97)"/><path class="cls-1" d="M65.62,68.64V70.9a.48.48,0,0,0,.11.34.59.59,0,0,0,.39.1h.54v1h-.74a1.29,1.29,0,0,1-1.48-1.44V68.64h-.56v-1h.56V66.53h1.18v1.15h1v1Z" transform="translate(-0.97)"/><path class="cls-1" d="M67.59,66.93a.64.64,0,0,1-.2-.49.63.63,0,0,1,.2-.49.69.69,0,0,1,.52-.2.67.67,0,0,1,.51.2.64.64,0,0,1,.21.49.65.65,0,0,1-.21.49.71.71,0,0,1-.51.2A.73.73,0,0,1,67.59,66.93Zm1.1.75v4.65H67.51V67.68Z" transform="translate(-0.97)"/><path class="cls-1" d="M70.7,72.11a2.12,2.12,0,0,1-.84-.84A2.5,2.5,0,0,1,69.55,70a2.46,2.46,0,0,1,.32-1.26,2.13,2.13,0,0,1,.86-.85,2.61,2.61,0,0,1,2.43,0,2.13,2.13,0,0,1,.86.85A2.46,2.46,0,0,1,74.34,70,2.51,2.51,0,0,1,74,71.27a2.29,2.29,0,0,1-.88.84,2.49,2.49,0,0,1-1.23.3A2.44,2.44,0,0,1,70.7,72.11Zm1.81-.88a1.14,1.14,0,0,0,.45-.47,1.6,1.6,0,0,0,.17-.75,1.39,1.39,0,0,0-.35-1,1.14,1.14,0,0,0-.85-.36,1.13,1.13,0,0,0-.85.36,1.7,1.7,0,0,0,0,2,1.11,1.11,0,0,0,.83.35A1.27,1.27,0,0,0,72.51,71.23Z" transform="translate(-0.97)"/><path class="cls-1" d="M79.13,68.14a2,2,0,0,1,.51,1.46v2.73H78.46V69.76a1.22,1.22,0,0,0-.27-.85,1.13,1.13,0,0,0-1.53,0,1.18,1.18,0,0,0-.28.85v2.57H75.2V67.68h1.18v.58a1.77,1.77,0,0,1,.6-.48,1.91,1.91,0,0,1,.8-.17A1.82,1.82,0,0,1,79.13,68.14Z" transform="translate(-0.97)"/><path class="cls-2" d="M40.5,0A25.39,25.39,0,1,0,65.88,25.38,25.38,25.38,0,0,0,40.5,0Zm3.66,39a6.23,6.23,0,0,1-1.34,2,6.43,6.43,0,0,1-2,1.35,6.08,6.08,0,0,1-2.44.49H29.11V38.64h9.28a2.09,2.09,0,0,0,0-4.17H34.2A6,6,0,0,1,31.77,34a6.32,6.32,0,0,1-3.33-3.34,6,6,0,0,1-.5-2.44,5.86,5.86,0,0,1,.5-2.44,6.38,6.38,0,0,1,3.33-3.33,6.19,6.19,0,0,1,2.44-.5h3.36V5.19h6.29a10.37,10.37,0,0,1,7.39,3.06,10.78,10.78,0,0,1,1.63,2.12,10.34,10.34,0,0,1,1.43,5.26h0a10.24,10.24,0,0,1-1.43,5.26A10.78,10.78,0,0,1,51.25,23a10.33,10.33,0,0,1-7.38,3.06h-.08v0H34.21a2.07,2.07,0,0,0-2.09,2v0a2.3,2.3,0,0,0,.16.82,2,2,0,0,0,1.92,1.27h4.19a6.44,6.44,0,0,1,2.44.49,6.22,6.22,0,0,1,3.33,3.34A6.33,6.33,0,0,1,44.16,39Z" transform="translate(-0.97)"/><path class="cls-2" d="M50.13,15.64a6.24,6.24,0,0,1-6.26,6.26l-.66,0H41.78V9.37h2.09a6,6,0,0,1,2.44.5,6.26,6.26,0,0,1,2,1.35,6.19,6.19,0,0,1,1.83,4.42Z" transform="translate(-0.97)"/><path class="cls-3" d="M55.31,38.84A3.78,3.78,0,0,1,55,40.39a3.87,3.87,0,0,1-.86,1.26,4.09,4.09,0,0,1-1.28.85,4,4,0,1,1-3.13-7.32,4,4,0,0,1,3.13,0,4.09,4.09,0,0,1,1.28.85A4,4,0,0,1,55,37.3,3.73,3.73,0,0,1,55.31,38.84Z" transform="translate(-0.97)"/></svg>